Coordinates
version=1
nRows=10
nColumns=28
inDegrees=yes

Units are S.I. units (second, meters, Newtons, ...)
Angles are in degrees.

endheader
time	pelvis_tilt	pelvis_list	pelvis_rotation	pelvis_tx	pelvis_ty	pelvis_tz	hip_flexion_r	hip_adduction_r	hip_rotation_r	knee_angle_r	ankle_angle_r	subtalar_angle_r	mtp_angle_r	hip_flexion_l	hip_adduction_l	hip_rotation_l	knee_angle_l	socket_flexion	socket_adduction	socket_rotation	socket_tx	socket_ty	socket_tz	foot_flex	lumbar_extension	lumbar_bending	lumbar_rotation
      0.54166667	      1.34664971	     -2.89361378	     10.94721806	      0.01576579	      0.96632133	      0.24217310	     23.88909257	      0.05981165	     -8.21570756	    -11.95902716	      5.76505093	    -15.91143123	     -2.27866917	    -19.98049357	     -8.80037261	     13.48932544	     -9.10167219	      0.00000000	      0.00000000	      0.00000000	      0.00000000	     -0.00271613	      0.00000000	      9.33729809	     -8.20975661	      3.47463013	    -17.31967427
      0.54583333	      1.33837560	     -2.99894707	     10.97569872	      0.02228605	      0.96484417	      0.24219992	     24.31847280	      0.16137053	     -8.33641308	    -13.07842473	      5.35438476	    -15.86781653	     -2.00853416	    -20.28633953	     -8.95787928	     13.36569049	     -9.26958315	      0.00000000	      0.00000000	      0.00000000	      0.00000000	     -0.00263418	      0.00000000	      9.38792874	     -8.14210395	      3.67097684	    -17.41176525
      0.55000000	      1.30527328	     -3.05014865	     10.96934661	      0.02872001	      0.96331380	      0.24231502	     24.84273055	      0.19326644	     -8.44480684	    -14.35785024	      4.89137754	    -15.82057067	     -1.66337736	    -20.55209828	     -9.04300544	     13.26074494	     -9.47165145	      0.00000000	      0.00000000	      0.00000000	      0.00000000	     -0.00250721	      0.00000000	      9.43563579	     -8.09863313	      3.80904062	    -17.45482112
      0.55416667	      0.79494872	     -2.94127666	     10.82865527	      0.03504126	      0.96106210	      0.24263713	     26.05463265	     -0.04380856	     -8.53007244	    -15.99627078	      4.44584324	    -15.44602086	      0.86184722	    -20.21865591	     -8.80225791	     13.22061735	     -9.90273295	      0.00000000	      0.00000000	      0.00000000	      0.00000000	     -0.00244712	      0.00000000	      9.49066236	     -7.47290839	      3.64365763	    -17.25555266
      0.55833333	      0.89607176	     -3.04487885	     10.84652412	      0.04150107	      0.95980020	      0.24274832	     26.35139550	      0.09027653	     -8.56244406	    -17.13162457	      3.91534092	    -15.45787274	      0.95719900	    -20.56303945	     -8.95671656	     13.12574296	    -10.19726772	      0.00000000	      0.00000000	      0.00000000	      0.00000000	     -0.00239769	      0.00000000	      9.47246643	     -7.60448354	      3.88286042	    -17.34528178
      0.56250000	      0.96163907	     -3.12906158	     10.84416405	      0.04795794	      0.95850918	      0.24289753	     26.68495955	      0.21167942	     -8.51118353	    -18.29081308	      3.41063330	    -15.45140470	      1.06034291	    -20.83592414	     -9.06903661	     13.03723449	    -10.55272471	      0.00000000	      0.00000000	      0.00000000	      0.00000000	     -0.00231645	      0.00000000	      9.45504481	     -7.67978040	      4.10261197	    -17.39984743
      0.56666667	      0.63395336	     -3.07510329	     10.61813836	      0.05442100	      0.95663944	      0.24343713	     27.57262835	      0.16248881	     -8.36487357	    -19.65691355	      2.23024868	    -16.08651185	      4.63808984	    -20.66435149	     -8.87819716	     12.78982225	    -11.07091493	      0.00000000	      0.00000000	      0.00000000	      0.00000000	     -0.00217246	      0.00000000	      9.40399648	     -7.29149821	      3.97007069	    -17.23072086
      0.57083333	      0.70498293	     -3.18350241	     10.61981525	      0.06086726	      0.95547723	      0.24362675	     27.84875291	      0.32866849	     -8.25069268	    -20.73074844	      1.81502836	    -16.02848814	      4.62774872	    -20.84240143	     -8.99694167	     12.72076215	    -11.58613789	      0.00000000	      0.00000000	      0.00000000	      0.00000000	     -0.00210448	      0.00000000	      9.32675558	     -7.39195913	      4.24253601	    -17.27156215
      0.57500000	      0.70204423	     -3.24759991	     10.49608935	      0.06737446	      0.95416542	      0.24403579	     28.27714187	      0.45570750	     -8.16471241	    -21.93955222	      1.31619662	    -16.01838570	      4.66473086	    -20.95112703	     -9.01174649	     12.44573214	    -12.15811359	      0.00000000	      0.00000000	      0.00000000	      0.00000000	     -0.00204876	      0.00000000	      9.21968893	     -7.36269434	      4.33726107	    -17.25854209
      0.57916667	      0.17642303	     -3.20491806	     10.16824263	      0.07378810	      0.95217895	      0.24489341	     29.33871273	      0.53905592	     -7.56185885	    -23.28003156	      0.71985208	    -16.43793154	      5.25864357	    -20.42729809	     -8.74842750	     12.18106559	    -12.92300137	      0.00000000	      0.00000000	      0.00000000	      0.00000000	     -0.00194192	      0.00000000	      9.08622280	     -6.77621269	      4.18708117	    -16.86870211
